<?xml version="1.0" encoding="utf-8"?>
<!-- Generator: Adobe Illustrator 18.0.0, SVG Export Plug-In . SVG Version: 6.00 Build 0)  -->
<!DOCTYPE svg PUBLIC "-//W3C//DTD SVG 1.1//EN" "http://www.w3.org/Graphics/SVG/1.1/DTD/svg11.dtd">
<svg version="1.1" id="Capa_1" xmlns="http://www.w3.org/2000/svg" xmlns:xlink="http://www.w3.org/1999/xlink" x="0px" y="0px"
	 viewBox="0 0 62.7 56.1" enable-background="new 0 0 62.7 56.1" xml:space="preserve">
<g>
	<path fill="#FF0000" d="M49.1,44.2l-2.5-28.6c-0.1-0.6-0.6-1.1-1.2-1.1h-5.2c-0.1-4.8-4-8.6-8.8-8.6s-8.7,3.9-8.8,8.6h-5.2
		c-0.6,0-1.2,0.5-1.2,1.1l-2.5,28.6c0,0,0,0.1,0,0.1c0,3.3,3,5.9,6.7,5.9h22.2c3.7,0,6.7-2.7,6.7-5.9C49.1,44.3,49.1,44.3,49.1,44.2
		z M31.3,8.3c3.4,0,6.3,2.8,6.3,6.2H25C25.1,11.1,27.9,8.3,31.3,8.3z M42.4,47.8H20.2c-2.3,0-4.2-1.5-4.2-3.4l2.4-27.5h4.1v3.7
		c0,0.7,0.5,1.2,1.2,1.2c0.7,0,1.2-0.5,1.2-1.2v-3.7h12.7v3.7c0,0.7,0.5,1.2,1.2,1.2c0.7,0,1.2-0.5,1.2-1.2v-3.7h4.1l2.4,27.5
		C46.6,46.3,44.7,47.8,42.4,47.8z"/>
</g>
</svg>
