<?xml version="1.0" encoding="utf-8"?>
<!-- Generator: Adobe Illustrator 18.0.0, SVG Export Plug-In . SVG Version: 6.00 Build 0)  -->
<!DOCTYPE svg PUBLIC "-//W3C//DTD SVG 1.1//EN" "http://www.w3.org/Graphics/SVG/1.1/DTD/svg11.dtd">
<svg version="1.1" id="Capa_1" xmlns="http://www.w3.org/2000/svg" xmlns:xlink="http://www.w3.org/1999/xlink" x="0px" y="0px"
	 viewBox="0 0 62.7 56.1" enable-background="new 0 0 62.7 56.1" xml:space="preserve">
<g>
	<g>
		<g>
			<path fill="#FF0000" d="M5.7,41.4v1.5c0,0.8,0.7,1.5,1.5,1.5h3c0.6,2.3,2.8,4.1,5.3,4.1s4.7-1.7,5.3-4.1h19.4v0
				c0.6,2.3,2.8,4.1,5.3,4.1s4.7-1.7,5.3-4.1h3.4c0.8,0,1.5-0.7,1.5-1.5v-11c0-0.4-0.1-0.7-0.4-1l-8.5-9.7c-0.3-0.3-0.7-0.5-1.1-0.5
				h-7.1v-6c0-0.8-0.7-1.5-1.5-1.5H7.2c-0.8,0-1.5,0.7-1.5,1.5v2 M16.1,45.4c-1.8,0.3-3.4-1.2-3.1-3.1c0.2-1,1-1.8,2-2
				c1.8-0.3,3.4,1.2,3.1,3.1C17.9,44.4,17.1,45.2,16.1,45.4z M20.9,41.4c-0.6-2.3-2.8-4.1-5.3-4.1s-4.7,1.7-5.3,4.1H10
				c-0.7,0-1.4-0.6-1.4-1.4V17.7c0-0.8,0.7-1.5,1.5-1.5h24.3c0.7,0,1.3,0.6,1.3,1.3v23c0,0.5-0.4,0.9-0.9,0.9H20.9z M46.1,45.4
				c-1.8,0.3-3.4-1.2-3.1-3.1c0.2-1,1-1.8,2-2c1.8-0.3,3.4,1.2,3.1,3.1C47.9,44.4,47.1,45.2,46.1,45.4z M52.3,41.4h-1.5
				c-0.6-2.3-2.8-4.1-5.3-4.1c-2.5,0-4.7,1.7-5.3,4.1h-0.6c-0.5,0-0.9-0.4-0.9-0.9V24.6c0-0.5,0.4-0.9,0.9-0.9h4.5
				c0.6,0,1.2,0.3,1.6,0.7l6.5,7.4c0.4,0.4,0.6,1,0.6,1.5l0,7.7C52.8,41.2,52.6,41.4,52.3,41.4z"/>
		</g>
	</g>
</g>
</svg>
