<?xml version="1.0" encoding="utf-8"?>
<!-- Generator: Adobe Illustrator 18.0.0, SVG Export Plug-In . SVG Version: 6.00 Build 0)  -->
<!DOCTYPE svg PUBLIC "-//W3C//DTD SVG 1.1//EN" "http://www.w3.org/Graphics/SVG/1.1/DTD/svg11.dtd">
<svg version="1.1" id="Capa_1" xmlns="http://www.w3.org/2000/svg" xmlns:xlink="http://www.w3.org/1999/xlink" x="0px" y="0px"
	 viewBox="0 0 41.3 36.8" enable-background="new 0 0 41.3 36.8" xml:space="preserve">
<g>
	<path fill="#FF0000" d="M15.2,22.9L15.2,22.9C15.2,22.9,15.2,22.9,15.2,22.9l16.4,0c0.4,0,0.8-0.3,0.9-0.7l3.6-12.7
		c0.1-0.3,0-0.6-0.1-0.8c-0.2-0.2-0.4-0.4-0.7-0.4H13.1l-0.6-2.9c-0.1-0.4-0.5-0.7-0.9-0.7H6.1c-0.5,0-0.9,0.4-0.9,0.9
		s0.4,0.9,0.9,0.9h4.7c0.1,0.5,3.1,13.9,3.3,14.7c-1,0.4-1.6,1.4-1.6,2.5c0,1.5,1.2,2.7,2.7,2.7h16.4c0.5,0,0.9-0.4,0.9-0.9
		c0-0.5-0.4-0.9-0.9-0.9H15.2c-0.5,0-0.9-0.4-0.9-0.9C14.3,23.3,14.7,22.9,15.2,22.9z M34,10.2l-3.1,10.9h-15l-2.4-10.9H34z"/>
	<path fill="#FF0000" d="M14.3,29.2c0,1.5,1.2,2.7,2.7,2.7s2.7-1.2,2.7-2.7s-1.2-2.7-2.7-2.7S14.3,27.7,14.3,29.2z M17,28.3
		c0.5,0,0.9,0.4,0.9,0.9c0,0.5-0.4,0.9-0.9,0.9c-0.5,0-0.9-0.4-0.9-0.9C16.1,28.7,16.5,28.3,17,28.3z"/>
	<path fill="#FF0000" d="M27.1,29.2c0,1.5,1.2,2.7,2.7,2.7c1.5,0,2.7-1.2,2.7-2.7s-1.2-2.7-2.7-2.7C28.3,26.5,27.1,27.7,27.1,29.2z
		 M29.8,28.3c0.5,0,0.9,0.4,0.9,0.9c0,0.5-0.4,0.9-0.9,0.9c-0.5,0-0.9-0.4-0.9-0.9C28.9,28.7,29.3,28.3,29.8,28.3z"/>
</g>
</svg>
