<?xml version="1.0" encoding="utf-8"?>
<!-- Generator: Adobe Illustrator 18.0.0, SVG Export Plug-In . SVG Version: 6.00 Build 0)  -->
<!DOCTYPE svg PUBLIC "-//W3C//DTD SVG 1.1//EN" "http://www.w3.org/Graphics/SVG/1.1/DTD/svg11.dtd">
<svg version="1.1" id="Capa_1" xmlns="http://www.w3.org/2000/svg" xmlns:xlink="http://www.w3.org/1999/xlink" x="0px" y="0px"
	 viewBox="0 0 62.7 56.1" enable-background="new 0 0 62.7 56.1" xml:space="preserve">
<g>
	<g>
		<g>
			<path fill="#FF0000" d="M46.6,37c-1-2.2-4.7-5.2-8.3-8.1c-2-1.6-3.9-3.1-5.1-4.3c-0.3-0.3-0.8-0.4-1.1-0.3
				c-0.7,0.3-1.2,0.5-1.6,0.6c-0.5,0.2-0.7,0.3-1.5,0.4c-0.3,0-0.6,0.2-0.8,0.5c-1.6,2.3-3.2,2.1-4.2,1.8c-0.3-0.1-0.4-0.3-0.4-0.4
				c-0.2-1,0.9-3.2,2.4-4.7c3.6-3.6,5.4-4.5,9.3-2.7c4.4,2,8.8,3.5,8.9,3.5c0.6,0.2,1.2-0.1,1.4-0.7c0.2-0.6-0.1-1.2-0.7-1.4
				c0,0-4.4-1.5-8.7-3.5c-5-2.3-7.8-0.8-11.8,3.2c-1.5,1.5-3.5,4.5-3,6.8c0.2,0.9,0.9,1.7,1.9,2c2.5,0.8,4.8,0,6.5-2.2
				c0.7-0.1,1.1-0.3,1.7-0.5c0.2-0.1,0.4-0.2,0.8-0.3c1.3,1.2,3,2.6,4.7,4c3.2,2.6,6.9,5.6,7.7,7.3c0.4,0.8,0,1.4-0.3,1.7
				c-0.4,0.4-1,0.5-1.4,0.3c-0.4-0.2-0.8-0.3-1.2,0c-0.4,0.2-0.6,0.6-0.5,1.1c0.1,0.7-0.6,1.1-0.8,1.2c-0.7,0.4-1.4,0.3-1.7,0
				c-0.3-0.3-0.7-0.4-1.1-0.2c-0.4,0.1-0.7,0.5-0.7,0.9c-0.1,0.7-0.6,1.4-1.3,1.7c-0.3,0.1-0.8,0.2-1.3-0.2c-0.3-0.2-0.7-0.3-1-0.3
				c-0.4,0.1-0.6,0.3-0.8,0.7c0,0.1-0.1,0.4-1.2,0.4c-0.7,0-2-0.5-2.7-0.9c-0.8-0.5-5.6-4.1-9.8-7.6c-0.6-0.5-1.6-1.6-2.5-2.5
				c-0.8-0.8-1.5-1.6-1.9-1.9c-0.5-0.4-1.2-0.3-1.5,0.1c-0.4,0.5-0.3,1.2,0.1,1.5c0.3,0.3,1,1,1.7,1.7c1,1,2,2.1,2.7,2.7
				c4.1,3.4,9,7.1,10,7.8c0.8,0.5,2.6,1.3,3.9,1.3c1.1,0,1.9-0.2,2.5-0.7c0.8,0.3,1.7,0.3,2.5,0c1-0.4,1.8-1.2,2.3-2.1
				c0.9,0.2,1.9,0.1,2.8-0.4c0.9-0.4,1.5-1.1,1.8-1.9c0.9,0,1.8-0.3,2.5-0.9C47,40.2,47.3,38.5,46.6,37z"/>
		</g>
	</g>
	<g>
		<g>
			<path fill="#FF0000" d="M26.9,18.8H17c-0.6,0-1.1,0.5-1.1,1.1S16.4,21,17,21h9.9c0.6,0,1.1-0.5,1.1-1.1S27.5,18.8,26.9,18.8z"/>
		</g>
	</g>
	<g>
		<g>
			<path fill="#FF0000" d="M49.8,34.7c-0.3-0.5-1-0.6-1.5-0.3l-3.2,2.2c-0.5,0.3-0.6,1-0.3,1.5c0.2,0.3,0.6,0.5,0.9,0.5
				c0.2,0,0.4-0.1,0.6-0.2l3.2-2.2C50,35.8,50.2,35.2,49.8,34.7z"/>
		</g>
	</g>
	<g>
		<g>
			<path fill="#FF0000" d="M43,39.9c-0.8-0.6-4.3-4.2-6.5-6.5c-0.4-0.4-1.1-0.5-1.6,0c-0.4,0.4-0.5,1.1,0,1.6
				c0.6,0.6,5.5,5.8,6.7,6.7c0.2,0.2,0.4,0.2,0.7,0.2c0.3,0,0.6-0.1,0.9-0.4C43.6,41,43.5,40.3,43,39.9z"/>
		</g>
	</g>
	<g>
		<g>
			<path fill="#FF0000" d="M38.6,42.1c-1.3-1.1-4.6-4.6-5.4-5.4c-0.4-0.4-1.1-0.5-1.6-0.1c-0.4,0.4-0.5,1.1-0.1,1.6
				c0,0,4,4.3,5.6,5.6c0.2,0.2,0.4,0.2,0.7,0.2c0.3,0,0.6-0.1,0.9-0.4C39.2,43.2,39.1,42.5,38.6,42.1z"/>
		</g>
	</g>
	<g>
		<g>
			<path fill="#FF0000" d="M34.2,44.3c-1.6-1.3-4.8-4.7-5.4-5.4c-0.4-0.4-1.1-0.5-1.6-0.1c-0.4,0.4-0.5,1.1-0.1,1.6
				c0.9,1,4,4.2,5.6,5.6c0.2,0.2,0.5,0.3,0.7,0.3c0.3,0,0.6-0.1,0.8-0.4C34.8,45.4,34.7,44.7,34.2,44.3z"/>
		</g>
	</g>
	<g>
		<g>
			<path fill="#FF0000" d="M17.8,16.9c-1.9-1.8-9.4-2.4-11.7-2.5c-0.3,0-0.6,0.1-0.8,0.3C5.1,14.9,5,15.2,5,15.5v19.8
				c0,0.6,0.5,1.1,1.1,1.1h6.6c0.5,0,0.9-0.3,1-0.8c0.2-0.5,3.9-12.1,4.4-17.8C18.2,17.4,18,17.1,17.8,16.9z M10.7,34.2H8.2
				c-0.6,0-1.1-0.5-1.1-1.1V17.9c0-0.7,0.6-1.2,1.2-1.1c2.5,0.2,4.9,0.6,6.5,1.1c0.6,0.2,1,0.8,0.9,1.4c-0.7,4.3-2.6,10.7-3.5,13.8
				C12,33.7,11.4,34.2,10.7,34.2z"/>
		</g>
	</g>
	<g>
		<g>
			<path fill="#FF0000" d="M56.6,16.6c-8.6,0-13.4,2.2-13.6,2.3c-0.3,0.1-0.5,0.4-0.6,0.7c-0.1,0.3,0,0.6,0.1,0.9
				c1.4,2.2,5.6,14.3,6.4,17.3c0.1,0.5,0.6,0.8,1.1,0.8h6.6c0.6,0,1.1-0.5,1.1-1.1V17.7C57.7,17.1,57.2,16.6,56.6,16.6z M54.3,36.4
				H52c-0.7,0-1.3-0.4-1.5-1.1c-1.1-3.5-3.4-10.1-5-13.7c-0.3-0.6,0.1-1.3,0.7-1.5c1.7-0.5,4.4-1.1,8-1.3c0.7,0,1.3,0.5,1.3,1.3v15
				C55.5,35.8,55,36.4,54.3,36.4z"/>
		</g>
	</g>
</g>
</svg>
