<?xml version="1.0" encoding="utf-8"?>
<!-- Generator: Adobe Illustrator 18.0.0, SVG Export Plug-In . SVG Version: 6.00 Build 0)  -->
<!DOCTYPE svg PUBLIC "-//W3C//DTD SVG 1.1//EN" "http://www.w3.org/Graphics/SVG/1.1/DTD/svg11.dtd">
<svg version="1.1" id="Capa_1" xmlns="http://www.w3.org/2000/svg" xmlns:xlink="http://www.w3.org/1999/xlink" x="0px" y="0px"
	 viewBox="0 0 41.3 36.8" enable-background="new 0 0 41.3 36.8" xml:space="preserve">
<g>
	<path fill="#FF0000" d="M21.3,20.3c3.6,0,6.5-2.9,6.5-6.5s-2.9-6.5-6.5-6.5s-6.5,2.9-6.5,6.5S17.7,20.3,21.3,20.3z M21.3,9
		c2.6,0,4.8,2.2,4.8,4.8s-2.2,4.8-4.8,4.8s-4.8-2.2-4.8-4.8S18.7,9,21.3,9z"/>
	<path fill="#FF0000" d="M10,30.5h22.6c0.5,0,0.9-0.4,0.9-0.9c0-4.5-3.6-8.2-8.2-8.2h-8c-4.5,0-8.2,3.6-8.2,8.2
		C9.2,30.1,9.6,30.5,10,30.5z M17.3,23.2h8c3.3,0,6,2.4,6.4,5.6H11C11.4,25.6,14.1,23.2,17.3,23.2z"/>
</g>
</svg>
